<svg version="1.2" xmlns="http://www.w3.org/2000/svg" viewBox="0 0 1527 542" width="1527" height="542"><style>.a{fill:#FFFFFF}</style><path fill-rule="evenodd" class="a" d="m914 69.7c69.3 0 66.2 39.4 66.2 39.4v320.8c0 47.3-66.2 41.8-66.2 41.8v68.5h268.6v-539.8h-268.6zm-237.1 398.9c-39.4-9.5-36.3-37.1-36.3-37.1v-430.3h-269.4v69.4c70.1 0 66.9 39.4 66.9 39.4v319.9c0 47.3-66.9 41.8-66.9 41.8v69.4h335.6v-69.4c-7.9 0-14.2-0.8-19.7-0.8zm-9.5-249.1v57.5l9.4 0.8c4 0 7.1 0.8 10.3 1.5 23.6 5.6 25.2 21.3 25.2 21.3v56.8h63.8v-219.1l-53.6-0.8h-10.2v51.2c0 16.6-13.4 24.4-25.2 27.6q-4.8 1.6-10.3 2.4c-5.5 0.8-9.4 0.8-9.4 0.8zm0-218.4v69.4h94.5c52.8 0 53.6 52.8 53.6 52.8l0.8 90.6h63.8l-0.8-212.8zm838.2 132.4c-9.5-122.1-126.1-131.6-126.1-131.6h-169.4v72.5c0 0 96.9-11.8 96.9 79.6-1.5 85.9-96.9 79.6-96.9 79.6v63.9c0 0 108-8.7 108 84.3 0.8 98.5-108 85.9-108 85.9v73.3h184.4c32.3 0 130.8-33.1 132.3-142.6-4.7-112-105.5-133.2-105.5-133.2 0 0 89-31.6 84.3-131.7zm-1438.6-23.6v320.8c0 46.5-66.9 41.7-66.9 41.7v68.6h335.6v-68.6c-70.2 0-66.2-40.2-66.2-40.2v-321.5c0-46.5 66.2-40.2 66.2-40.2v-68.6h-335.6v68.6c70.1 0 66.9 39.4 66.9 39.4z"/></svg>